# xmcd
#
# Track frame offsets:
#	150
#	10949
#	19247
#	32358
#	44335
#	56577
#	69630
#	80394
#	91646
#	104239
#	114785
#	125837
#	138122
#	149076
#	158659
#	169441
#	181243
#
# Disc length: 2568 seconds
#
# Revision: 1
# Processed by: cddbd v1.5.2PL0 Copyright (c) Steve Scherf et al.
# Submitted via: audiograbber 1.83.01
#
DISCID=e40a0611
DTITLE=Roy Acuff - Sings Hank Williams
DYEAR=1966
DGENRE=Country
TTITLE0=Hey Good Lookin' (1966)
TTITLE1=Why Don't You Love Me (1966)
TTITLE2=Mansion On The Hill (1966)
TTITLE3=Your Cheatin' Heart (1966)
TTITLE4=You Win Again (1966)
TTITLE5=Kawliga (1966)
TTITLE6=Jambalaya (1966)
TTITLE7=There'll Be No Teardrops Tonight (1966)
TTITLE8=Cold Cold Heart (1966)
TTITLE9=I Can't Help It (If I'm Still In Love With You) (1966)
TTITLE10=Take These Chains From My Heart (1966)
TTITLE11=I'm So Lonesome I Could Cry (1966)
TTITLE12=They'll Never Take Her Love From Me (1966)
TTITLE13=I Saw The Light (1966)
TTITLE14=Lost Highway (1966)
TTITLE15=Pan American (1966)
TTITLE16=I Heard That Lonesome Whistle Blow (1966)
EXTD=
EXTT0=
EXTT1=
EXTT2=
EXTT3=
EXTT4=
EXTT5=
EXTT6=
EXTT7=
EXTT8=
EXTT9=
EXTT10=
EXTT11=
EXTT12=
EXTT13=
EXTT14=
EXTT15=
EXTT16=
PLAYORDER=
